<svg width="20" height="20" viewBox="0 0 20 20" fill="none" xmlns="http://www.w3.org/2000/svg">
<g clip-path="url(#clip0_138_21941)">
<path d="M18.5385 8.29927C18.4834 5.42817 18.0834 3.3106 18.0889 3.30864C17.9225 2.98403 17.6307 2.71255 17.2736 2.57388C14.9299 1.66489 12.6252 0.797314 10.3783 0.0570801C10.1486 -0.0187012 9.90644 -0.0187012 9.67714 0.0570801C7.43066 0.795361 5.12636 1.66138 2.783 2.56919C2.46776 2.69146 2.20331 2.91763 2.03105 3.19263C2.04433 3.19419 1.5494 4.73911 1.46503 8.15122C1.41503 11.5637 1.84003 12.586 1.82597 12.5872C2.05605 13.3372 2.48651 14.1 3.10331 14.8758C3.79276 15.7422 4.7244 16.6372 5.8498 17.5168C7.71269 18.979 9.45605 19.8528 9.52909 19.8836C9.68729 19.961 9.85487 20.0004 10.0275 20C10.2006 20 10.3682 19.9606 10.526 19.8829C10.5994 19.852 12.3447 18.9754 14.2068 17.5137C15.3326 16.6333 16.2642 15.7383 16.9541 14.8723C17.615 14.0415 18.0619 13.2262 18.2779 12.4254C18.2693 12.4243 18.5818 11.1711 18.5385 8.29966V8.29927ZM10.9549 10.5387V12.3579C10.9549 12.8704 10.5396 13.2856 10.0271 13.286C9.51464 13.286 9.09901 12.8708 9.09901 12.3583V10.5645C8.43026 10.2321 7.97011 9.54224 7.97011 8.74497C7.97011 7.6231 8.87948 6.71333 10.0014 6.71333C11.1232 6.71333 12.0326 7.6227 12.033 8.74458C12.033 9.52192 11.5963 10.1973 10.9549 10.5387Z" fill="#525252"/>
</g>
<defs>
<clipPath id="clip0_138_21941">
<rect width="20" height="20" fill="white"/>
</clipPath>
</defs>
</svg>
